<svg xmlns="http://www.w3.org/2000/svg" xmlns:xlink="http://www.w3.org/1999/xlink" contentStyleType="text/css" data-diagram-type="SEQUENCE" height="555px" preserveAspectRatio="none" style="width:1107px;height:555px;background:#FFFFFF;" version="1.1" viewBox="0 0 1107 555" width="1107px" zoomAndPan="magnify"><title>Issue #4 Create Meeting Flow</title><defs/><g><text fill="#000000" font-family="sans-serif" font-size="14" font-weight="bold" lengthAdjust="spacing" textLength="212.8301" x="446.4114" y="28.5352">Issue #4 Create Meeting Flow</text><g><title>Creator</title><rect fill="#000000" fill-opacity="0.00000" height="355.416" width="8" x="29.2554" y="118.9766"/><line style="stroke:#181818;stroke-width:0.5;stroke-dasharray:5,5;" x1="33" x2="33" y1="118.9766" y2="474.3926"/></g><g><title>React.Vite frontend</title><rect fill="#000000" fill-opacity="0.00000" height="355.416" width="8" x="285.1543" y="118.9766"/><line style="stroke:#181818;stroke-width:0.5;stroke-dasharray:5,5;" x1="288.4048" x2="288.4048" y1="118.9766" y2="474.3926"/></g><g><title>Hono Worker API</title><rect fill="#000000" fill-opacity="0.00000" height="355.416" width="8" x="448.0156" y="118.9766"/><line style="stroke:#181818;stroke-width:0.5;stroke-dasharray:5,5;" x1="451.7749" x2="451.7749" y1="118.9766" y2="474.3926"/></g><g><title>Cloudflare RealtimeKit API</title><rect fill="#000000" fill-opacity="0.00000" height="355.416" width="8" x="829.4458" y="118.9766"/><line style="stroke:#181818;stroke-width:0.5;stroke-dasharray:5,5;" x1="832.6538" x2="832.6538" y1="118.9766" y2="474.3926"/></g><g><title>Workers Observability</title><rect fill="#000000" fill-opacity="0.00000" height="355.416" width="8" x="1016.4453" y="118.9766"/><line style="stroke:#181818;stroke-width:0.5;stroke-dasharray:5,5;" x1="1020.2378" x2="1020.2378" y1="118.9766" y2="474.3926"/></g><g class="participant participant-head" data-participant="User"><text fill="#000000" font-family="sans-serif" font-size="14" lengthAdjust="spacing" textLength="50.5107" x="5" y="116.0234">Creator</text><ellipse cx="33.2554" cy="50.9883" fill="#E2E2F0" rx="8" ry="8" style="stroke:#181818;stroke-width:0.5;"/><path d="M33.2554,58.9883 L33.2554,85.9883 M20.2554,66.9883 L46.2554,66.9883 M33.2554,85.9883 L20.2554,100.9883 M33.2554,85.9883 L46.2554,100.9883" fill="none" style="stroke:#181818;stroke-width:0.5;"/></g><g class="participant participant-tail" data-participant="User"><text fill="#000000" font-family="sans-serif" font-size="14" lengthAdjust="spacing" textLength="50.5107" x="5" y="486.9277">Creator</text><ellipse cx="33.2554" cy="498.3809" fill="#E2E2F0" rx="8" ry="8" style="stroke:#181818;stroke-width:0.5;"/><path d="M33.2554,506.3809 L33.2554,533.3809 M20.2554,514.3809 L46.2554,514.3809 M33.2554,533.3809 L20.2554,548.3809 M33.2554,533.3809 L46.2554,548.3809" fill="none" style="stroke:#181818;stroke-width:0.5;"/></g><g class="participant participant-head" data-participant="Frontend"><rect fill="#E2E2F0" height="30.4883" rx="2.5" ry="2.5" style="stroke:#181818;stroke-width:0.5;" width="147.499" x="215.4048" y="87.4883"/><text fill="#000000" font-family="sans-serif" font-size="14" lengthAdjust="spacing" textLength="133.499" x="222.4048" y="108.0234">React/Vite frontend</text></g><g class="participant participant-tail" data-participant="Frontend"><rect fill="#E2E2F0" height="30.4883" rx="2.5" ry="2.5" style="stroke:#181818;stroke-width:0.5;" width="147.499" x="215.4048" y="473.3926"/><text fill="#000000" font-family="sans-serif" font-size="14" lengthAdjust="spacing" textLength="133.499" x="222.4048" y="493.9277">React/Vite frontend</text></g><g class="participant participant-head" data-participant="Worker"><rect fill="#E2E2F0" height="30.4883" rx="2.5" ry="2.5" style="stroke:#181818;stroke-width:0.5;" width="128.4814" x="387.7749" y="87.4883"/><text fill="#000000" font-family="sans-serif" font-size="14" lengthAdjust="spacing" textLength="114.4814" x="394.7749" y="108.0234">Hono Worker API</text></g><g class="participant participant-tail" data-participant="Worker"><rect fill="#E2E2F0" height="30.4883" rx="2.5" ry="2.5" style="stroke:#181818;stroke-width:0.5;" width="128.4814" x="387.7749" y="473.3926"/><text fill="#000000" font-family="sans-serif" font-size="14" lengthAdjust="spacing" textLength="114.4814" x="394.7749" y="493.9277">Hono Worker API</text></g><g class="participant participant-head" data-participant="RealtimeKit"><rect fill="#E2E2F0" height="30.4883" rx="2.5" ry="2.5" style="stroke:#181818;stroke-width:0.5;" width="191.584" x="737.6538" y="87.4883"/><text fill="#000000" font-family="sans-serif" font-size="14" lengthAdjust="spacing" textLength="177.584" x="744.6538" y="108.0234">Cloudflare RealtimeKit API</text></g><g class="participant participant-tail" data-participant="RealtimeKit"><rect fill="#E2E2F0" height="30.4883" rx="2.5" ry="2.5" style="stroke:#181818;stroke-width:0.5;" width="191.584" x="737.6538" y="473.3926"/><text fill="#000000" font-family="sans-serif" font-size="14" lengthAdjust="spacing" textLength="177.584" x="744.6538" y="493.9277">Cloudflare RealtimeKit API</text></g><g class="participant participant-head" data-participant="Observability"><rect fill="#E2E2F0" height="30.4883" rx="2.5" ry="2.5" style="stroke:#181818;stroke-width:0.5;" width="162.415" x="939.2378" y="87.4883"/><text fill="#000000" font-family="sans-serif" font-size="14" lengthAdjust="spacing" textLength="148.415" x="946.2378" y="108.0234">Workers Observability</text></g><g class="participant participant-tail" data-participant="Observability"><rect fill="#E2E2F0" height="30.4883" rx="2.5" ry="2.5" style="stroke:#181818;stroke-width:0.5;" width="162.415" x="939.2378" y="473.3926"/><text fill="#000000" font-family="sans-serif" font-size="14" lengthAdjust="spacing" textLength="148.415" x="946.2378" y="493.9277">Workers Observability</text></g><g class="message" data-participant-1="User" data-participant-2="Frontend"><polygon fill="#181818" points="277.1543,146.2871,287.1543,150.2871,277.1543,154.2871,281.1543,150.2871" style="stroke:#181818;stroke-width:1;"/><line style="stroke:#181818;stroke-width:1;" x1="33.2554" x2="283.1543" y1="150.2871" y2="150.2871"/><text fill="#000000" font-family="sans-serif" font-size="13" lengthAdjust="spacing" textLength="231.8989" x="40.2554" y="145.5449">Enter display name and optional title</text></g><g class="message" data-participant-1="Frontend" data-participant-2="Worker"><polygon fill="#181818" points="440.0156,175.5977,450.0156,179.5977,440.0156,183.5977,444.0156,179.5977" style="stroke:#181818;stroke-width:1;"/><line style="stroke:#181818;stroke-width:1;" x1="289.1543" x2="446.0156" y1="179.5977" y2="179.5977"/><text fill="#000000" font-family="sans-serif" font-size="13" lengthAdjust="spacing" textLength="127.4165" x="296.1543" y="174.8555">POST /api/meetings</text></g><g class="message" data-participant-1="Worker" data-participant-2="Worker"><line style="stroke:#181818;stroke-width:1;" x1="452.0156" x2="494.0156" y1="208.9082" y2="208.9082"/><line style="stroke:#181818;stroke-width:1;" x1="494.0156" x2="494.0156" y1="208.9082" y2="221.9082"/><line style="stroke:#181818;stroke-width:1;" x1="453.0156" x2="494.0156" y1="221.9082" y2="221.9082"/><polygon fill="#181818" points="463.0156,217.9082,453.0156,221.9082,463.0156,225.9082,459.0156,221.9082" style="stroke:#181818;stroke-width:1;"/><text fill="#000000" font-family="sans-serif" font-size="13" lengthAdjust="spacing" textLength="239.9668" x="459.0156" y="204.166">Validate request body and Worker env</text></g><g class="message" data-participant-1="Worker" data-participant-2="RealtimeKit"><polygon fill="#181818" points="821.4458,247.2188,831.4458,251.2188,821.4458,255.2188,825.4458,251.2188" style="stroke:#181818;stroke-width:1;"/><line style="stroke:#181818;stroke-width:1;" x1="452.0156" x2="827.4458" y1="251.2188" y2="251.2188"/><text fill="#000000" font-family="sans-serif" font-size="13" lengthAdjust="spacing" textLength="96.3701" x="459.0156" y="246.4766">Create meeting</text></g><g class="message" data-participant-1="RealtimeKit" data-participant-2="Worker"><polygon fill="#181818" points="463.0156,276.5293,453.0156,280.5293,463.0156,284.5293,459.0156,280.5293" style="stroke:#181818;stroke-width:1;"/><line style="stroke:#181818;stroke-width:1;stroke-dasharray:2,2;" x1="457.0156" x2="832.4458" y1="280.5293" y2="280.5293"/><text fill="#000000" font-family="sans-serif" font-size="13" lengthAdjust="spacing" textLength="69.0117" x="469.0156" y="275.7871">meeting ID</text></g><g class="message" data-participant-1="Worker" data-participant-2="RealtimeKit"><polygon fill="#181818" points="821.4458,305.8398,831.4458,309.8398,821.4458,313.8398,825.4458,309.8398" style="stroke:#181818;stroke-width:1;"/><line style="stroke:#181818;stroke-width:1;" x1="452.0156" x2="827.4458" y1="309.8398" y2="309.8398"/><text fill="#000000" font-family="sans-serif" font-size="13" lengthAdjust="spacing" textLength="357.4302" x="459.0156" y="305.0977">Add creator participant with REALTIMEKIT_PRESET_NAME</text></g><g class="message" data-participant-1="RealtimeKit" data-participant-2="Worker"><polygon fill="#181818" points="463.0156,335.1504,453.0156,339.1504,463.0156,343.1504,459.0156,339.1504" style="stroke:#181818;stroke-width:1;"/><line style="stroke:#181818;stroke-width:1;stroke-dasharray:2,2;" x1="457.0156" x2="832.4458" y1="339.1504" y2="339.1504"/><text fill="#000000" font-family="sans-serif" font-size="13" lengthAdjust="spacing" textLength="107.8784" x="469.0156" y="334.4082">participant token</text></g><g class="message" data-participant-1="Worker" data-participant-2="Observability"><polygon fill="#181818" points="1008.4453,364.4609,1018.4453,368.4609,1008.4453,372.4609,1012.4453,368.4609" style="stroke:#181818;stroke-width:1;"/><line style="stroke:#181818;stroke-width:1;" x1="452.0156" x2="1014.4453" y1="368.4609" y2="368.4609"/><text fill="#000000" font-family="sans-serif" font-size="13" lengthAdjust="spacing" textLength="237.3706" x="459.0156" y="363.7188">Structured create/request failure logs</text></g><g class="message" data-participant-1="Worker" data-participant-2="Frontend"><polygon fill="#181818" points="300.1543,393.7715,290.1543,397.7715,300.1543,401.7715,296.1543,397.7715" style="stroke:#181818;stroke-width:1;"/><line style="stroke:#181818;stroke-width:1;stroke-dasharray:2,2;" x1="294.1543" x2="451.0156" y1="397.7715" y2="397.7715"/><text fill="#000000" font-family="sans-serif" font-size="13" lengthAdjust="spacing" textLength="138.8613" x="306.1543" y="393.0293">meetingId, authToken</text></g><g class="message" data-participant-1="Frontend" data-participant-2="RealtimeKit"><polygon fill="#181818" points="821.4458,423.082,831.4458,427.082,821.4458,431.082,825.4458,427.082" style="stroke:#181818;stroke-width:1;"/><line style="stroke:#181818;stroke-width:1;" x1="289.1543" x2="827.4458" y1="427.082" y2="427.082"/><text fill="#000000" font-family="sans-serif" font-size="13" lengthAdjust="spacing" textLength="185.1421" x="296.1543" y="422.3398">Initialize SDK with authToken</text></g><g class="message" data-participant-1="Frontend" data-participant-2="User"><polygon fill="#181818" points="44.2554,452.3926,34.2554,456.3926,44.2554,460.3926,40.2554,456.3926" style="stroke:#181818;stroke-width:1;"/><line style="stroke:#181818;stroke-width:1;stroke-dasharray:2,2;" x1="38.2554" x2="288.1543" y1="456.3926" y2="456.3926"/><text fill="#000000" font-family="sans-serif" font-size="13" lengthAdjust="spacing" textLength="119.5454" x="50.2554" y="451.6504">Render RtkMeeting</text></g><!--SRC=[TLBBRi8m4BpxArRqMiIbfnmgHH3KY59GIEaH6RoK5SPEdGs8VdsT1yYHoidoUcPdPzPCh17IigmGdbvWx50omXoHoNp3LDkB47B7ri6WURDk0BA4pnATAAHZsb4X3SCWGmyRhScpzyuQHgCQvBIxzD5lrbZuikw83k9bsY3RQnytrhPIUoqTWXVGJ2US4TyfGQtFQtkLiDZwGSzoIvhusb1w5I5g8p1ylOyPGU9F1uhAGiih67b2a4Q1BPYiaHguJapSy3Mt5OjWkLZbC985ZKvjVgNeB0QWjTIawemT_bHOCcojkZOA7HRDEQ053gFRThhk8ana64Xqxv1E7ZMAbO9Tkqu8SxiG7o1BulSydIUpDDyiisILv9kFU9uyb0iRi3sY2LHxQKUmObVjk7BOoUFebi9UalPrq3P8hRUNpbMgda5MVCWRfN0DFOUf8IOVzI_2QZ9hZVr7yxpw2qIURPJNpFZOVNxn1m00]--></g></svg>