<svg xmlns="http://www.w3.org/2000/svg" xmlns:xlink="http://www.w3.org/1999/xlink" contentStyleType="text/css" data-diagram-type="SEQUENCE" height="496px" preserveAspectRatio="none" style="width:1161px;height:496px;background:#FFFFFF;" version="1.1" viewBox="0 0 1161 496" width="1161px" zoomAndPan="magnify"><title>Issue #5 Join Existing Meeting Flow</title><defs/><g><text fill="#000000" font-family="sans-serif" font-size="14" font-weight="bold" lengthAdjust="spacing" textLength="257.1475" x="451.0791" y="28.5352">Issue #5 Join Existing Meeting Flow</text><g><title>Second user</title><rect fill="#000000" fill-opacity="0.00000" height="296.7949" width="8" x="45.1968" y="118.9766"/><line style="stroke:#181818;stroke-width:0.5;stroke-dasharray:5,5;" x1="49" x2="49" y1="118.9766" y2="415.7715"/></g><g><title>React.Vite frontend</title><rect fill="#000000" fill-opacity="0.00000" height="296.7949" width="8" x="289.7334" y="118.9766"/><line style="stroke:#181818;stroke-width:0.5;stroke-dasharray:5,5;" x1="292.9839" x2="292.9839" y1="118.9766" y2="415.7715"/></g><g><title>Hono Worker API</title><rect fill="#000000" fill-opacity="0.00000" height="296.7949" width="8" x="550.3486" y="118.9766"/><line style="stroke:#181818;stroke-width:0.5;stroke-dasharray:5,5;" x1="554.1079" x2="554.1079" y1="118.9766" y2="415.7715"/></g><g><title>Cloudflare RealtimeKit API</title><rect fill="#000000" fill-opacity="0.00000" height="296.7949" width="8" x="883.0986" y="118.9766"/><line style="stroke:#181818;stroke-width:0.5;stroke-dasharray:5,5;" x1="886.3066" x2="886.3066" y1="118.9766" y2="415.7715"/></g><g><title>Workers Observability</title><rect fill="#000000" fill-opacity="0.00000" height="296.7949" width="8" x="1070.0981" y="118.9766"/><line style="stroke:#181818;stroke-width:0.5;stroke-dasharray:5,5;" x1="1073.8906" x2="1073.8906" y1="118.9766" y2="415.7715"/></g><g class="participant participant-head" data-participant="User"><text fill="#000000" font-family="sans-serif" font-size="14" lengthAdjust="spacing" textLength="82.3936" x="5" y="116.0234">Second user</text><ellipse cx="49.1968" cy="50.9883" fill="#E2E2F0" rx="8" ry="8" style="stroke:#181818;stroke-width:0.5;"/><path d="M49.1968,58.9883 L49.1968,85.9883 M36.1968,66.9883 L62.1968,66.9883 M49.1968,85.9883 L36.1968,100.9883 M49.1968,85.9883 L62.1968,100.9883" fill="none" style="stroke:#181818;stroke-width:0.5;"/></g><g class="participant participant-tail" data-participant="User"><text fill="#000000" font-family="sans-serif" font-size="14" lengthAdjust="spacing" textLength="82.3936" x="5" y="428.3066">Second user</text><ellipse cx="49.1968" cy="439.7598" fill="#E2E2F0" rx="8" ry="8" style="stroke:#181818;stroke-width:0.5;"/><path d="M49.1968,447.7598 L49.1968,474.7598 M36.1968,455.7598 L62.1968,455.7598 M49.1968,474.7598 L36.1968,489.7598 M49.1968,474.7598 L62.1968,489.7598" fill="none" style="stroke:#181818;stroke-width:0.5;"/></g><g class="participant participant-head" data-participant="Frontend"><rect fill="#E2E2F0" height="30.4883" rx="2.5" ry="2.5" style="stroke:#181818;stroke-width:0.5;" width="147.499" x="219.9839" y="87.4883"/><text fill="#000000" font-family="sans-serif" font-size="14" lengthAdjust="spacing" textLength="133.499" x="226.9839" y="108.0234">React/Vite frontend</text></g><g class="participant participant-tail" data-participant="Frontend"><rect fill="#E2E2F0" height="30.4883" rx="2.5" ry="2.5" style="stroke:#181818;stroke-width:0.5;" width="147.499" x="219.9839" y="414.7715"/><text fill="#000000" font-family="sans-serif" font-size="14" lengthAdjust="spacing" textLength="133.499" x="226.9839" y="435.3066">React/Vite frontend</text></g><g class="participant participant-head" data-participant="Worker"><rect fill="#E2E2F0" height="30.4883" rx="2.5" ry="2.5" style="stroke:#181818;stroke-width:0.5;" width="128.4814" x="490.1079" y="87.4883"/><text fill="#000000" font-family="sans-serif" font-size="14" lengthAdjust="spacing" textLength="114.4814" x="497.1079" y="108.0234">Hono Worker API</text></g><g class="participant participant-tail" data-participant="Worker"><rect fill="#E2E2F0" height="30.4883" rx="2.5" ry="2.5" style="stroke:#181818;stroke-width:0.5;" width="128.4814" x="490.1079" y="414.7715"/><text fill="#000000" font-family="sans-serif" font-size="14" lengthAdjust="spacing" textLength="114.4814" x="497.1079" y="435.3066">Hono Worker API</text></g><g class="participant participant-head" data-participant="RealtimeKit"><rect fill="#E2E2F0" height="30.4883" rx="2.5" ry="2.5" style="stroke:#181818;stroke-width:0.5;" width="191.584" x="791.3066" y="87.4883"/><text fill="#000000" font-family="sans-serif" font-size="14" lengthAdjust="spacing" textLength="177.584" x="798.3066" y="108.0234">Cloudflare RealtimeKit API</text></g><g class="participant participant-tail" data-participant="RealtimeKit"><rect fill="#E2E2F0" height="30.4883" rx="2.5" ry="2.5" style="stroke:#181818;stroke-width:0.5;" width="191.584" x="791.3066" y="414.7715"/><text fill="#000000" font-family="sans-serif" font-size="14" lengthAdjust="spacing" textLength="177.584" x="798.3066" y="435.3066">Cloudflare RealtimeKit API</text></g><g class="participant participant-head" data-participant="Observability"><rect fill="#E2E2F0" height="30.4883" rx="2.5" ry="2.5" style="stroke:#181818;stroke-width:0.5;" width="162.415" x="992.8906" y="87.4883"/><text fill="#000000" font-family="sans-serif" font-size="14" lengthAdjust="spacing" textLength="148.415" x="999.8906" y="108.0234">Workers Observability</text></g><g class="participant participant-tail" data-participant="Observability"><rect fill="#E2E2F0" height="30.4883" rx="2.5" ry="2.5" style="stroke:#181818;stroke-width:0.5;" width="162.415" x="992.8906" y="414.7715"/><text fill="#000000" font-family="sans-serif" font-size="14" lengthAdjust="spacing" textLength="148.415" x="999.8906" y="435.3066">Workers Observability</text></g><g class="message" data-participant-1="User" data-participant-2="Frontend"><polygon fill="#181818" points="281.7334,146.2871,291.7334,150.2871,281.7334,154.2871,285.7334,150.2871" style="stroke:#181818;stroke-width:1;"/><line style="stroke:#181818;stroke-width:1;" x1="49.1968" x2="287.7334" y1="150.2871" y2="150.2871"/><text fill="#000000" font-family="sans-serif" font-size="13" lengthAdjust="spacing" textLength="220.5366" x="56.1968" y="145.5449">Enter display name and meeting ID</text></g><g class="message" data-participant-1="Frontend" data-participant-2="Worker"><polygon fill="#181818" points="542.3486,175.5977,552.3486,179.5977,542.3486,183.5977,546.3486,179.5977" style="stroke:#181818;stroke-width:1;"/><line style="stroke:#181818;stroke-width:1;" x1="293.7334" x2="548.3486" y1="179.5977" y2="179.5977"/><text fill="#000000" font-family="sans-serif" font-size="13" lengthAdjust="spacing" textLength="236.6152" x="300.7334" y="174.8555">POST /api/meetings/{meetingId}/join</text></g><g class="message" data-participant-1="Worker" data-participant-2="Worker"><line style="stroke:#181818;stroke-width:1;" x1="554.3486" x2="596.3486" y1="208.9082" y2="208.9082"/><line style="stroke:#181818;stroke-width:1;" x1="596.3486" x2="596.3486" y1="208.9082" y2="221.9082"/><line style="stroke:#181818;stroke-width:1;" x1="555.3486" x2="596.3486" y1="221.9082" y2="221.9082"/><polygon fill="#181818" points="565.3486,217.9082,555.3486,221.9082,565.3486,225.9082,561.3486,221.9082" style="stroke:#181818;stroke-width:1;"/><text fill="#000000" font-family="sans-serif" font-size="13" lengthAdjust="spacing" textLength="298.0732" x="561.3486" y="204.166">Validate meetingId path and displayName body</text></g><g class="message" data-participant-1="Worker" data-participant-2="RealtimeKit"><polygon fill="#181818" points="875.0986,247.2188,885.0986,251.2188,875.0986,255.2188,879.0986,251.2188" style="stroke:#181818;stroke-width:1;"/><line style="stroke:#181818;stroke-width:1;" x1="554.3486" x2="881.0986" y1="251.2188" y2="251.2188"/><text fill="#000000" font-family="sans-serif" font-size="13" lengthAdjust="spacing" textLength="308.75" x="561.3486" y="246.4766">Add participant with REALTIMEKIT_PRESET_NAME</text></g><g class="message" data-participant-1="RealtimeKit" data-participant-2="Worker"><polygon fill="#181818" points="565.3486,276.5293,555.3486,280.5293,565.3486,284.5293,561.3486,280.5293" style="stroke:#181818;stroke-width:1;"/><line style="stroke:#181818;stroke-width:1;stroke-dasharray:2,2;" x1="559.3486" x2="886.0986" y1="280.5293" y2="280.5293"/><text fill="#000000" font-family="sans-serif" font-size="13" lengthAdjust="spacing" textLength="107.8784" x="571.3486" y="275.7871">participant token</text></g><g class="message" data-participant-1="Worker" data-participant-2="Observability"><polygon fill="#181818" points="1062.0981,305.8398,1072.0981,309.8398,1062.0981,313.8398,1066.0981,309.8398" style="stroke:#181818;stroke-width:1;"/><line style="stroke:#181818;stroke-width:1;" x1="554.3486" x2="1068.0981" y1="309.8398" y2="309.8398"/><text fill="#000000" font-family="sans-serif" font-size="13" lengthAdjust="spacing" textLength="222.6313" x="561.3486" y="305.0977">Structured join/request failure logs</text></g><g class="message" data-participant-1="Worker" data-participant-2="Frontend"><polygon fill="#181818" points="304.7334,335.1504,294.7334,339.1504,304.7334,343.1504,300.7334,339.1504" style="stroke:#181818;stroke-width:1;"/><line style="stroke:#181818;stroke-width:1;stroke-dasharray:2,2;" x1="298.7334" x2="553.3486" y1="339.1504" y2="339.1504"/><text fill="#000000" font-family="sans-serif" font-size="13" lengthAdjust="spacing" textLength="138.8613" x="310.7334" y="334.4082">meetingId, authToken</text></g><g class="message" data-participant-1="Frontend" data-participant-2="RealtimeKit"><polygon fill="#181818" points="875.0986,364.4609,885.0986,368.4609,875.0986,372.4609,879.0986,368.4609" style="stroke:#181818;stroke-width:1;"/><line style="stroke:#181818;stroke-width:1;" x1="293.7334" x2="881.0986" y1="368.4609" y2="368.4609"/><text fill="#000000" font-family="sans-serif" font-size="13" lengthAdjust="spacing" textLength="185.1421" x="300.7334" y="363.7188">Initialize SDK with authToken</text></g><g class="message" data-participant-1="Frontend" data-participant-2="User"><polygon fill="#181818" points="60.1968,393.7715,50.1968,397.7715,60.1968,401.7715,56.1968,397.7715" style="stroke:#181818;stroke-width:1;"/><line style="stroke:#181818;stroke-width:1;stroke-dasharray:2,2;" x1="54.1968" x2="292.7334" y1="397.7715" y2="397.7715"/><text fill="#000000" font-family="sans-serif" font-size="13" lengthAdjust="spacing" textLength="119.5454" x="66.1968" y="393.0293">Render RtkMeeting</text></g><!--SRC=[RL8zJyCm4DtzAqvbfSh4aW6fWY12AQsQ02Dowsivwjh1lW05yTznqX0SYSdswRrx7maJQuJS-nhXv0nkB1d8FiWpcItC4DlpIjjt8UIQhODHWMjh5DGUtGYaX_jm4PLqJ6kgf64OBJ50amTYX8spXj6e5ddLFOReQsiiF5gtGmUJHTuYZyyXxaBRMcsqT0X1G3FjSKhSKwBPa7VSvM6-2aRVv8eqyQ6b32P2D45WVDxRJ24BfmD5ljBo04Rk4MI8lkzgoI_5BxRX7OLIMCoB4X9PKT81VVBLtNBrdRo4YaMNDs8zI4rAXifwA5IIdrl1pi5TOs1brI6YHx5JcAY6z9VzdSA2PJQvBVDPDitBfyKoAxBowMuooqHSuZWo4YzWkyFOxA2n50fszPfhXmgQL8d3rnezmqQI3bFGTkjxzg3PFkGfo9gVorOdBdEGApV45FhvH2WkfyTO_z42h_c8QM0R5JINlEj-OV43]--></g></svg>