<svg xmlns="http://www.w3.org/2000/svg" xmlns:xlink="http://www.w3.org/1999/xlink" contentStyleType="text/css" data-diagram-type="SEQUENCE" height="906px" preserveAspectRatio="none" style="width:1044px;height:906px;background:#FFFFFF;" version="1.1" viewBox="0 0 1044 906" width="1044px" zoomAndPan="magnify"><title>Cloudflare RealtimeKit Demo Main Flow</title><defs/><g><text fill="#000000" font-family="sans-serif" font-size="14" font-weight="bold" lengthAdjust="spacing" textLength="286.4873" x="375.2012" y="28.5352">Cloudflare RealtimeKit Demo Main Flow</text><g><title>User</title><rect fill="#000000" fill-opacity="0.00000" height="706.832" width="8" x="19.1826" y="118.9766"/><line style="stroke:#181818;stroke-width:0.5;stroke-dasharray:5,5;" x1="23" x2="23" y1="118.9766" y2="825.8086"/></g><g><title>React.Vite frontend</title><rect fill="#000000" fill-opacity="0.00000" height="706.832" width="8" x="275.0815" y="118.9766"/><line style="stroke:#181818;stroke-width:0.5;stroke-dasharray:5,5;" x1="278.332" x2="278.332" y1="118.9766" y2="825.8086"/></g><g><title>Hono Worker API</title><rect fill="#000000" fill-opacity="0.00000" height="706.832" width="8" x="535.6968" y="118.9766"/><line style="stroke:#181818;stroke-width:0.5;stroke-dasharray:5,5;" x1="539.4561" x2="539.4561" y1="118.9766" y2="825.8086"/></g><g><title>Cloudflare RealtimeKit API</title><rect fill="#000000" fill-opacity="0.00000" height="706.832" width="8" x="760.6826" y="118.9766"/><line style="stroke:#181818;stroke-width:0.5;stroke-dasharray:5,5;" x1="763.8906" x2="763.8906" y1="118.9766" y2="825.8086"/></g><g><title>Workers Observability</title><rect fill="#000000" fill-opacity="0.00000" height="706.832" width="8" x="947.6821" y="118.9766"/><line style="stroke:#181818;stroke-width:0.5;stroke-dasharray:5,5;" x1="951.4746" x2="951.4746" y1="118.9766" y2="825.8086"/></g><g class="participant participant-head" data-participant="User"><text fill="#000000" font-family="sans-serif" font-size="14" lengthAdjust="spacing" textLength="30.3652" x="5" y="116.0234">User</text><ellipse cx="23.1826" cy="50.9883" fill="#E2E2F0" rx="8" ry="8" style="stroke:#181818;stroke-width:0.5;"/><path d="M23.1826,58.9883 L23.1826,85.9883 M10.1826,66.9883 L36.1826,66.9883 M23.1826,85.9883 L10.1826,100.9883 M23.1826,85.9883 L36.1826,100.9883" fill="none" style="stroke:#181818;stroke-width:0.5;"/></g><g class="participant participant-tail" data-participant="User"><text fill="#000000" font-family="sans-serif" font-size="14" lengthAdjust="spacing" textLength="30.3652" x="5" y="838.3438">User</text><ellipse cx="23.1826" cy="849.7969" fill="#E2E2F0" rx="8" ry="8" style="stroke:#181818;stroke-width:0.5;"/><path d="M23.1826,857.7969 L23.1826,884.7969 M10.1826,865.7969 L36.1826,865.7969 M23.1826,884.7969 L10.1826,899.7969 M23.1826,884.7969 L36.1826,899.7969" fill="none" style="stroke:#181818;stroke-width:0.5;"/></g><g class="participant participant-head" data-participant="Frontend"><rect fill="#E2E2F0" height="30.4883" rx="2.5" ry="2.5" style="stroke:#181818;stroke-width:0.5;" width="147.499" x="205.332" y="87.4883"/><text fill="#000000" font-family="sans-serif" font-size="14" lengthAdjust="spacing" textLength="133.499" x="212.332" y="108.0234">React/Vite frontend</text></g><g class="participant participant-tail" data-participant="Frontend"><rect fill="#E2E2F0" height="30.4883" rx="2.5" ry="2.5" style="stroke:#181818;stroke-width:0.5;" width="147.499" x="205.332" y="824.8086"/><text fill="#000000" font-family="sans-serif" font-size="14" lengthAdjust="spacing" textLength="133.499" x="212.332" y="845.3438">React/Vite frontend</text></g><g class="participant participant-head" data-participant="Worker"><rect fill="#E2E2F0" height="30.4883" rx="2.5" ry="2.5" style="stroke:#181818;stroke-width:0.5;" width="128.4814" x="475.4561" y="87.4883"/><text fill="#000000" font-family="sans-serif" font-size="14" lengthAdjust="spacing" textLength="114.4814" x="482.4561" y="108.0234">Hono Worker API</text></g><g class="participant participant-tail" data-participant="Worker"><rect fill="#E2E2F0" height="30.4883" rx="2.5" ry="2.5" style="stroke:#181818;stroke-width:0.5;" width="128.4814" x="475.4561" y="824.8086"/><text fill="#000000" font-family="sans-serif" font-size="14" lengthAdjust="spacing" textLength="114.4814" x="482.4561" y="845.3438">Hono Worker API</text></g><g class="participant participant-head" data-participant="RealtimeKit"><rect fill="#E2E2F0" height="30.4883" rx="2.5" ry="2.5" style="stroke:#181818;stroke-width:0.5;" width="191.584" x="668.8906" y="87.4883"/><text fill="#000000" font-family="sans-serif" font-size="14" lengthAdjust="spacing" textLength="177.584" x="675.8906" y="108.0234">Cloudflare RealtimeKit API</text></g><g class="participant participant-tail" data-participant="RealtimeKit"><rect fill="#E2E2F0" height="30.4883" rx="2.5" ry="2.5" style="stroke:#181818;stroke-width:0.5;" width="191.584" x="668.8906" y="824.8086"/><text fill="#000000" font-family="sans-serif" font-size="14" lengthAdjust="spacing" textLength="177.584" x="675.8906" y="845.3438">Cloudflare RealtimeKit API</text></g><g class="participant participant-head" data-participant="Observability"><rect fill="#E2E2F0" height="30.4883" rx="2.5" ry="2.5" style="stroke:#181818;stroke-width:0.5;" width="162.415" x="870.4746" y="87.4883"/><text fill="#000000" font-family="sans-serif" font-size="14" lengthAdjust="spacing" textLength="148.415" x="877.4746" y="108.0234">Workers Observability</text></g><g class="participant participant-tail" data-participant="Observability"><rect fill="#E2E2F0" height="30.4883" rx="2.5" ry="2.5" style="stroke:#181818;stroke-width:0.5;" width="162.415" x="870.4746" y="824.8086"/><text fill="#000000" font-family="sans-serif" font-size="14" lengthAdjust="spacing" textLength="148.415" x="877.4746" y="845.3438">Workers Observability</text></g><rect fill="#EEEEEE" height="3" style="stroke:#EEEEEE;stroke-width:1;" width="1037.8896" x="0" y="149.6318"/><line style="stroke:#000000;stroke-width:1;" x1="0" x2="1037.8896" y1="149.6318" y2="149.6318"/><line style="stroke:#000000;stroke-width:1;" x1="0" x2="1037.8896" y1="152.6318" y2="152.6318"/><rect fill="#EEEEEE" height="23.3105" style="stroke:#000000;stroke-width:2;" width="120.3359" x="458.7769" y="138.9766"/><text fill="#000000" font-family="sans-serif" font-size="13" font-weight="bold" lengthAdjust="spacing" textLength="102.0513" x="464.7769" y="155.5449">Create meeting</text><g class="message" data-participant-1="User" data-participant-2="Frontend"><polygon fill="#181818" points="267.0815,189.5977,277.0815,193.5977,267.0815,197.5977,271.0815,193.5977" style="stroke:#181818;stroke-width:1;"/><line style="stroke:#181818;stroke-width:1;" x1="23.1826" x2="273.0815" y1="193.5977" y2="193.5977"/><text fill="#000000" font-family="sans-serif" font-size="13" lengthAdjust="spacing" textLength="231.8989" x="30.1826" y="188.8555">Enter display name and optional title</text></g><g class="message" data-participant-1="Frontend" data-participant-2="Worker"><polygon fill="#181818" points="527.6968,218.9082,537.6968,222.9082,527.6968,226.9082,531.6968,222.9082" style="stroke:#181818;stroke-width:1;"/><line style="stroke:#181818;stroke-width:1;" x1="279.0815" x2="533.6968" y1="222.9082" y2="222.9082"/><text fill="#000000" font-family="sans-serif" font-size="13" lengthAdjust="spacing" textLength="127.4165" x="286.0815" y="218.166">POST /api/meetings</text></g><g class="message" data-participant-1="Worker" data-participant-2="RealtimeKit"><polygon fill="#181818" points="752.6826,248.2188,762.6826,252.2188,752.6826,256.2188,756.6826,252.2188" style="stroke:#181818;stroke-width:1;"/><line style="stroke:#181818;stroke-width:1;" x1="539.6968" x2="758.6826" y1="252.2188" y2="252.2188"/><text fill="#000000" font-family="sans-serif" font-size="13" lengthAdjust="spacing" textLength="96.3701" x="546.6968" y="247.4766">Create meeting</text></g><g class="message" data-participant-1="RealtimeKit" data-participant-2="Worker"><polygon fill="#181818" points="550.6968,277.5293,540.6968,281.5293,550.6968,285.5293,546.6968,281.5293" style="stroke:#181818;stroke-width:1;"/><line style="stroke:#181818;stroke-width:1;stroke-dasharray:2,2;" x1="544.6968" x2="763.6826" y1="281.5293" y2="281.5293"/><text fill="#000000" font-family="sans-serif" font-size="13" lengthAdjust="spacing" textLength="63.3433" x="556.6968" y="276.7871">meetingId</text></g><g class="message" data-participant-1="Worker" data-participant-2="RealtimeKit"><polygon fill="#181818" points="752.6826,306.8398,762.6826,310.8398,752.6826,314.8398,756.6826,310.8398" style="stroke:#181818;stroke-width:1;"/><line style="stroke:#181818;stroke-width:1;" x1="539.6968" x2="758.6826" y1="310.8398" y2="310.8398"/><text fill="#000000" font-family="sans-serif" font-size="13" lengthAdjust="spacing" textLength="171.8628" x="546.6968" y="306.0977">Add participant with preset</text></g><g class="message" data-participant-1="RealtimeKit" data-participant-2="Worker"><polygon fill="#181818" points="550.6968,336.1504,540.6968,340.1504,550.6968,344.1504,546.6968,340.1504" style="stroke:#181818;stroke-width:1;"/><line style="stroke:#181818;stroke-width:1;stroke-dasharray:2,2;" x1="544.6968" x2="763.6826" y1="340.1504" y2="340.1504"/><text fill="#000000" font-family="sans-serif" font-size="13" lengthAdjust="spacing" textLength="140.1689" x="556.6968" y="335.4082">participant auth token</text></g><g class="message" data-participant-1="Worker" data-participant-2="Frontend"><polygon fill="#181818" points="290.0815,365.4609,280.0815,369.4609,290.0815,373.4609,286.0815,369.4609" style="stroke:#181818;stroke-width:1;"/><line style="stroke:#181818;stroke-width:1;stroke-dasharray:2,2;" x1="284.0815" x2="538.6968" y1="369.4609" y2="369.4609"/><text fill="#000000" font-family="sans-serif" font-size="13" lengthAdjust="spacing" textLength="138.8613" x="296.0815" y="364.7188">meetingId, authToken</text></g><g class="message" data-participant-1="Frontend" data-participant-2="RealtimeKit"><polygon fill="#181818" points="752.6826,394.7715,762.6826,398.7715,752.6826,402.7715,756.6826,398.7715" style="stroke:#181818;stroke-width:1;"/><line style="stroke:#181818;stroke-width:1;" x1="279.0815" x2="758.6826" y1="398.7715" y2="398.7715"/><text fill="#000000" font-family="sans-serif" font-size="13" lengthAdjust="spacing" textLength="185.1421" x="286.0815" y="394.0293">Initialize SDK with authToken</text></g><g class="message" data-participant-1="Frontend" data-participant-2="User"><polygon fill="#181818" points="34.1826,424.082,24.1826,428.082,34.1826,432.082,30.1826,428.082" style="stroke:#181818;stroke-width:1;"/><line style="stroke:#181818;stroke-width:1;stroke-dasharray:2,2;" x1="28.1826" x2="278.0815" y1="428.082" y2="428.082"/><text fill="#000000" font-family="sans-serif" font-size="13" lengthAdjust="spacing" textLength="119.5454" x="40.1826" y="423.3398">Render RtkMeeting</text></g><rect fill="#EEEEEE" height="3" style="stroke:#EEEEEE;stroke-width:1;" width="1037.8896" x="0" y="456.7373"/><line style="stroke:#000000;stroke-width:1;" x1="0" x2="1037.8896" y1="456.7373" y2="456.7373"/><line style="stroke:#000000;stroke-width:1;" x1="0" x2="1037.8896" y1="459.7373" y2="459.7373"/><rect fill="#EEEEEE" height="23.3105" style="stroke:#000000;stroke-width:2;" width="103.5273" x="467.1812" y="446.082"/><text fill="#000000" font-family="sans-serif" font-size="13" font-weight="bold" lengthAdjust="spacing" textLength="85.2427" x="473.1812" y="462.6504">Join meeting</text><g class="message" data-participant-1="User" data-participant-2="Frontend"><polygon fill="#181818" points="267.0815,496.7031,277.0815,500.7031,267.0815,504.7031,271.0815,500.7031" style="stroke:#181818;stroke-width:1;"/><line style="stroke:#181818;stroke-width:1;" x1="23.1826" x2="273.0815" y1="500.7031" y2="500.7031"/><text fill="#000000" font-family="sans-serif" font-size="13" lengthAdjust="spacing" textLength="214.8682" x="30.1826" y="495.9609">Enter display name and meetingId</text></g><g class="message" data-participant-1="Frontend" data-participant-2="Worker"><polygon fill="#181818" points="527.6968,526.0137,537.6968,530.0137,527.6968,534.0137,531.6968,530.0137" style="stroke:#181818;stroke-width:1;"/><line style="stroke:#181818;stroke-width:1;" x1="279.0815" x2="533.6968" y1="530.0137" y2="530.0137"/><text fill="#000000" font-family="sans-serif" font-size="13" lengthAdjust="spacing" textLength="236.6152" x="286.0815" y="525.2715">POST /api/meetings/{meetingId}/join</text></g><g class="message" data-participant-1="Worker" data-participant-2="RealtimeKit"><polygon fill="#181818" points="752.6826,555.3242,762.6826,559.3242,752.6826,563.3242,756.6826,559.3242" style="stroke:#181818;stroke-width:1;"/><line style="stroke:#181818;stroke-width:1;" x1="539.6968" x2="758.6826" y1="559.3242" y2="559.3242"/><text fill="#000000" font-family="sans-serif" font-size="13" lengthAdjust="spacing" textLength="171.8628" x="546.6968" y="554.582">Add participant with preset</text></g><g class="message" data-participant-1="RealtimeKit" data-participant-2="Worker"><polygon fill="#181818" points="550.6968,584.6348,540.6968,588.6348,550.6968,592.6348,546.6968,588.6348" style="stroke:#181818;stroke-width:1;"/><line style="stroke:#181818;stroke-width:1;stroke-dasharray:2,2;" x1="544.6968" x2="763.6826" y1="588.6348" y2="588.6348"/><text fill="#000000" font-family="sans-serif" font-size="13" lengthAdjust="spacing" textLength="140.1689" x="556.6968" y="583.8926">participant auth token</text></g><g class="message" data-participant-1="Worker" data-participant-2="Frontend"><polygon fill="#181818" points="290.0815,613.9453,280.0815,617.9453,290.0815,621.9453,286.0815,617.9453" style="stroke:#181818;stroke-width:1;"/><line style="stroke:#181818;stroke-width:1;stroke-dasharray:2,2;" x1="284.0815" x2="538.6968" y1="617.9453" y2="617.9453"/><text fill="#000000" font-family="sans-serif" font-size="13" lengthAdjust="spacing" textLength="138.8613" x="296.0815" y="613.2031">meetingId, authToken</text></g><g class="message" data-participant-1="Frontend" data-participant-2="RealtimeKit"><polygon fill="#181818" points="752.6826,643.2559,762.6826,647.2559,752.6826,651.2559,756.6826,647.2559" style="stroke:#181818;stroke-width:1;"/><line style="stroke:#181818;stroke-width:1;" x1="279.0815" x2="758.6826" y1="647.2559" y2="647.2559"/><text fill="#000000" font-family="sans-serif" font-size="13" lengthAdjust="spacing" textLength="185.1421" x="286.0815" y="642.5137">Initialize SDK with authToken</text></g><g class="message" data-participant-1="Frontend" data-participant-2="User"><polygon fill="#181818" points="34.1826,672.5664,24.1826,676.5664,34.1826,680.5664,30.1826,676.5664" style="stroke:#181818;stroke-width:1;"/><line style="stroke:#181818;stroke-width:1;stroke-dasharray:2,2;" x1="28.1826" x2="278.0815" y1="676.5664" y2="676.5664"/><text fill="#000000" font-family="sans-serif" font-size="13" lengthAdjust="spacing" textLength="119.5454" x="40.1826" y="671.8242">Render RtkMeeting</text></g><rect fill="#EEEEEE" height="3" style="stroke:#EEEEEE;stroke-width:1;" width="1037.8896" x="0" y="705.2217"/><line style="stroke:#000000;stroke-width:1;" x1="0" x2="1037.8896" y1="705.2217" y2="705.2217"/><line style="stroke:#000000;stroke-width:1;" x1="0" x2="1037.8896" y1="708.2217" y2="708.2217"/><rect fill="#EEEEEE" height="23.3105" style="stroke:#000000;stroke-width:2;" width="79.6348" x="479.1274" y="694.5664"/><text fill="#000000" font-family="sans-serif" font-size="13" font-weight="bold" lengthAdjust="spacing" textLength="61.3501" x="485.1274" y="711.1348">Webhook</text><g class="message" data-participant-1="RealtimeKit" data-participant-2="Worker"><polygon fill="#181818" points="550.6968,745.1875,540.6968,749.1875,550.6968,753.1875,546.6968,749.1875" style="stroke:#181818;stroke-width:1;"/><line style="stroke:#181818;stroke-width:1;" x1="544.6968" x2="763.6826" y1="749.1875" y2="749.1875"/><text fill="#000000" font-family="sans-serif" font-size="13" lengthAdjust="spacing" textLength="200.9858" x="556.6968" y="744.4453">POST /api/realtimekit/webhook</text></g><g class="message" data-participant-1="Worker" data-participant-2="Observability"><polygon fill="#181818" points="939.6821,774.498,949.6821,778.498,939.6821,782.498,943.6821,778.498" style="stroke:#181818;stroke-width:1;"/><line style="stroke:#181818;stroke-width:1;" x1="539.6968" x2="945.6821" y1="778.498" y2="778.498"/><text fill="#000000" font-family="sans-serif" font-size="13" lengthAdjust="spacing" textLength="127.8037" x="546.6968" y="773.7559">Structured event log</text></g><g class="message" data-participant-1="Worker" data-participant-2="RealtimeKit"><polygon fill="#181818" points="752.6826,803.8086,762.6826,807.8086,752.6826,811.8086,756.6826,807.8086" style="stroke:#181818;stroke-width:1;"/><line style="stroke:#181818;stroke-width:1;stroke-dasharray:2,2;" x1="539.6968" x2="758.6826" y1="807.8086" y2="807.8086"/><text fill="#000000" font-family="sans-serif" font-size="13" lengthAdjust="spacing" textLength="84.4873" x="546.6968" y="803.0664">2xx accepted</text></g><!--SRC=[vLF1IWCn4BtdAmRFoeB7XGfYBLOHnLPxdcwcxRXficIdjYh-kzdkMXDfGRnw2adUctdlJI8iXk32k9MU6VG43uH6U4atBD2dfODRP0i3uzPAOI7EmsDDNbNeXGkkq0eS1KuXsHCBmSmxAsJr4M0DWswJeg-STJ1nlYGFv_V3BRBTfhW3ehueqLdAQslLS3SDGbzmoeRbTKj9JfJgzU324mRLIo9XEuTUJpNkuEHifps7ox1wq5nN1b_1uf80hGPN2JkB1gI9K7tX6swh88Vxkz4OCgmuwnhKglCTG97-_8SE5VizYGfszqDzgCwvrX27iMPPGEMf9ZbODCRZAk35bMHt7P8iTWAEjz3n5XbRJzGCBGkZuJU2KV-c5REF5dXDx7bWMnrwFaXvsoNH3EdQXHVubn5zn_MxwMJlEyP7zXow_gkO9pHTE5Ss2ISUzYNcEq39agrRNfHLyizo68bV5RBof85UADWtRXxxJioSRZQ0HK6La5QV]--></g></svg>